<svg id="visual" viewBox="0 0 960 540" width="960" height="540" xmlns="http://www.w3.org/2000/svg" xmlns:xlink="http://www.w3.org/1999/xlink" version="1.1"><rect x="0" y="0" width="960" height="540" fill="#1a0505"></rect><path d="M0 119L80 107L160 95L240 79L320 64L400 115L480 70L560 122L640 73L720 58L800 106L880 112L960 73L960 541L880 541L800 541L720 541L640 541L560 541L480 541L400 541L320 541L240 541L160 541L80 541L0 541Z" fill="#2c0000"></path><path d="M0 105L80 142L160 131L240 136L320 150L400 141L480 109L560 114L640 99L720 119L800 152L880 119L960 147L960 541L880 541L800 541L720 541L640 541L560 541L480 541L400 541L320 541L240 541L160 541L80 541L0 541Z" fill="#2e0400"></path><path d="M0 160L80 168L160 166L240 167L320 175L400 193L480 149L560 135L640 132L720 183L800 196L880 177L960 140L960 541L880 541L800 541L720 541L640 541L560 541L480 541L400 541L320 541L240 541L160 541L80 541L0 541Z" fill="#300800"></path><path d="M0 220L80 203L160 204L240 191L320 180L400 184L480 199L560 192L640 226L720 180L800 178L880 178L960 191L960 541L880 541L800 541L720 541L640 541L560 541L480 541L400 541L320 541L240 541L160 541L80 541L0 541Z" fill="#330c00"></path><path d="M0 252L80 246L160 243L240 250L320 216L400 264L480 223L560 215L640 256L720 262L800 224L880 259L960 228L960 541L880 541L800 541L720 541L640 541L560 541L480 541L400 541L320 541L240 541L160 541L80 541L0 541Z" fill="#351000"></path><path d="M0 286L80 259L160 301L240 246L320 260L400 253L480 244L560 271L640 301L720 255L800 257L880 285L960 258L960 541L880 541L800 541L720 541L640 541L560 541L480 541L400 541L320 541L240 541L160 541L80 541L0 541Z" fill="#361400"></path><path d="M0 313L80 302L160 314L240 284L320 345L400 341L480 328L560 305L640 310L720 300L800 304L880 345L960 298L960 541L880 541L800 541L720 541L640 541L560 541L480 541L400 541L320 541L240 541L160 541L80 541L0 541Z" fill="#381800"></path><path d="M0 348L80 363L160 379L240 337L320 365L400 365L480 332L560 382L640 369L720 340L800 369L880 377L960 322L960 541L880 541L800 541L720 541L640 541L560 541L480 541L400 541L320 541L240 541L160 541L80 541L0 541Z" fill="#391c00"></path><path d="M0 367L80 376L160 405L240 397L320 362L400 390L480 420L560 371L640 376L720 416L800 408L880 384L960 416L960 541L880 541L800 541L720 541L640 541L560 541L480 541L400 541L320 541L240 541L160 541L80 541L0 541Z" fill="#392000"></path><path d="M0 403L80 443L160 419L240 445L320 419L400 404L480 448L560 444L640 408L720 398L800 451L880 413L960 401L960 541L880 541L800 541L720 541L640 541L560 541L480 541L400 541L320 541L240 541L160 541L80 541L0 541Z" fill="#392400"></path><path d="M0 482L80 434L160 438L240 464L320 491L400 445L480 460L560 474L640 474L720 460L800 441L880 477L960 434L960 541L880 541L800 541L720 541L640 541L560 541L480 541L400 541L320 541L240 541L160 541L80 541L0 541Z" fill="#392800"></path><path d="M0 515L80 529L160 510L240 533L320 517L400 533L480 503L560 474L640 505L720 489L800 524L880 517L960 513L960 541L880 541L800 541L720 541L640 541L560 541L480 541L400 541L320 541L240 541L160 541L80 541L0 541Z" fill="#382c00"></path></svg>